# xmcd
#
# Track frame offsets: 
#        150
#        22072
#        36129
#        75668
#        90518
#        102955
#        116463
#        128047
#        152027
#        165162
#
# Disc length: 2390 seconds
#
# Revision: 2
# Processed by: cddbd v1.5.2PL0 Copyright (c) Steve Scherf et al.
# Submitted via: ExactAudioCopy v0.99pb4
#
DISCID=6a09540a
DTITLE=Various Artist - Best of Big Band [CD2]
DYEAR=2003
DGENRE=Jazz
TTITLE0=Woody Herman - Woodchoppers Ball
TTITLE1=Count Basie - Swinging The Blues
TTITLE2=Benny Goodman - How High The Moon
TTITLE3=Glenn Miller Orchestra - In The Mood
TTITLE4=Les Brown - It's All Right With Me
TTITLE5=Duke Ellington - Sophisticated Lady
TTITLE6=Artie Shaw - My Blue Heaven
TTITLE7=Glenn Miller Orchestra - Johnson Rag
TTITLE8=Woody Herman - Blowin' Up A Storm
TTITLE9=Duke Ellington - Jam With Sam
EXTD=
EXTT0=
EXTT1=
EXTT2=
EXTT3=
EXTT4=
EXTT5=
EXTT6=
EXTT7=
EXTT8=
EXTT9=
PLAYORDER=
